/* XPM */
static char *icon6110mini_xpm[] = {
/* width height num_colors chars_per_pixel */
"    18    45       16            1",
/* colors */
". c #ffffff",
"# c #e0e6f3",
"a c #bfcce5",
"b c #bfc0bc",
"c c #90a6d3",
"d c #899c77",
"e c #8b8eba",
"f c #6571a2",
"g c #4066b3",
"h c #48607d",
"i c #5a5c44",
"j c #3f5266",
"k c #2c304e",
"l c #003399",
"m c #2a2a22",
"n c #081116",
/* pixels */
"..................",
".............#b...",
".............mna..",
".............mna..",
".............nnb..",
".............mnb..",
"......bbbbb#.nnb..",
"....bnkfeeeb#bmb..",
"....nnhfffeea#bb..",
"...dnkhffffeiiab..",
"...mnkhhhkjffjcb..",
"..#nkjhchknheaca..",
"..bnkjhefjhhfbcb..",
"..bnkhfhffffeacb..",
"..enmmmnnnmmkheb..",
"..hnnnniiiinnnna..",
"..hnnnnmmmmmmnna..",
"..eni#bbbdbbbdnb..",
"..hndbdimidnmdnc..",
"..fni#dniiiiddnc..",
"..enibimiiiiidnc..",
"..enidddddidddnc..",
"..enmddddddddinc..",
"..eknmmmmmmmmnje..",
"..ekknkknnnkhhhe..",
"..emmmmjjihnkkhe..",
"..enknnmnnjknhhf..",
"..enkkknmmmhhhhf..",
"..enmiknnnmkiijf..",
"..eknnmkhjhmmmhe..",
"..ekmmkjjjjhjffe..",
"..enmikkmikjmije..",
"..eknnjjknjfjkfe..",
"..ckiikkiijjidhe..",
"..bkmmkkmnkhmmhe..",
"..bkmkjjjkhhhffe..",
"..aniikmiikjmijc..",
"..aknnjjknjfkkhb..",
"..akmkkkiijjjdhb..",
"..annnkkmnkhmmjb..",
"..akkkjjjjhhhhhb..",
"..#kkkkjjjjjhhhb..",
"..#nmkkkkkjjjhkb..",
"...jnnnnnnnnnnj...",
"....#........#...."
};
