/* XPM */
static char * BCard_xpm[] = {
"16 16 7 1",
" 	s None	c None",
".	c steelblue1",
"X	c black",
"o	c white",
"O	c gray60",
"+	c gray45",
"@	c gray85",
"                ",
"  ............  ",
"  .X.X.X..X.X.  ",
"  ............  ",
"  .oooooooooo.  ",
"  .oO+OoOOooo.  ",
"  .ooo+Ooo++O.  ",
"  .o++Ooooooo.  ",
"  .oooOoO@@oo.  ",
"  .oO++@@OOOo.  ",
"  .oooooooooo.  ",
"  ............  ",
"                ",
"                ",
"                ",
"                "};
