/* XPM */
static char * Caller_logo_xpm[] = {
"20 19 9 1",
" 	c None",
".	c #000000",
"+	c #808080",
"@	c #FFFFFF",
"#	c #00FF00",
"$	c #008000",
"%	c #0B256B",
"&	c #D4D0C8",
"*	c #86000A",
"                    ",
"                    ",
"       .            ",
"       .            ",
"    ....    .....+  ",
"   .++++.   ......  ",
"   .............@+  ",
"   .#$$.....+.++%+  ",
"   . $$....+@+@@@+  ",
"   .......+@%+@@@+  ",
"   ......@@@@++@+   ",
"   ......@@@@+&.+   ",
"   ......+...+@++   ",
"   ......@@+.*****  ",
"   ......%++%**++   ",
"   ......%%%%+      ",
"    ....            ",
"                    ",
"                    "};
