/* XPM */
static char * Check_xpm[] = {
"16 17 5 1",
" 	c None",
".	c black",
"X	c gray50",
"o	c gray85",
"#	c white",
"      .   .     ",
"       ...      ",
"     X.....X    ",
"    XX.....XX   ",
"    ..#...X..   ",
"   X.#.XXX...X  ",
"  ...#..o...... ",
"   .....o.....  ",
"   .....o.....  ",
"  .X....o....X. ",
"    ....o....   ",
"   .X...o...X.  ",
"     X..o..X    ",
"       XoX      ",
"                ",
"                ",
"                "};
