/* XPM */
/*

  G N O K I I

  A Linux/Unix toolset and driver for Nokia mobile phones.

  Copyright (C) 1999 Jan Derfinak <ja@mail.upjs.sk>

  Released under the terms of the GNU GPL, see file COPYING for more details.

*/

static char * Delete_xpm[] = {
"16 17 4 1",
" 	c None",
".	c red",
"X	c gray50",
"o	c black",
"                ",
"           .    ",
"   ..X    ...   ",
"    ..X  .....  ",
"     .......oo  ",
"      .....o    ",
"      ....o     ",
"     ......     ",
"     ..o ...    ",
"    ..o   ...   ",
"    .o     ..X  ",
"   .o       .o  ",
"   o         o  ",
"                ",
"                ",
"                ",
"                "};
