/* XPM */
/*

  G N O K I I

  A Linux/Unix toolset and driver for Nokia mobile phones.

  Copyright (C) 1999 Jan Derfinak <ja@mail.upjs.sk>

  Released under the terms of the GNU GPL, see file COPYING for more details.

*/
static char * Duplicate_xpm[] = {
"16 18 4 1",
" 	c None",
".	c black",
"X	c gray50",
"o	c white",
"    .......     ",
"    .XXXXXX.    ",
"  .......XXX.   ",
"  .ooooo..XXX.  ",
"  .ooooo.o.XX.  ",
"  .ooooo....X.  ",
"  .oooooooo.X.  ",
"  .oooooooo.X.  ",
"  .oooooooo.X.  ",
"  .oooooooo.X.  ",
"  .oooooooo.X.  ",
"  .oooooooo.X.  ",
"  .oooooooo.X.  ",
"  .oooooooo...  ",
"  .oooooooo.    ",
"  ..........    ",
"                ",
"                "};
