/* XPM */
static char * Edit_flip_horizontal_xpm[] = {
"20 19 4 1",
" 	c None",
".	c #000000",
"+	c #35773A",
"@	c #5ACA62",
"                    ",
"                    ",
"                    ",
"        . .         ",
"       .. ..        ",
"      .+. . .       ",
"      .+. . .       ",
"     .@+. .  .      ",
"     .@+. .  .      ",
"    .@@+. .   .     ",
"    .@@+. .   .     ",
"   .@@@+. .    .    ",
"   .@@@+. .    .    ",
"  .@@@@+. .     .   ",
"  ....... .......   ",
"                    ",
"                    ",
"                    ",
"                    "};
