/* XPM */
static char *Forward_xpm[]={
"16 16 5 1",
"c c #ffa858",
"a c #c3c3c3",
"b c #000000",
". c None",
"# c #ff0000",
".####a..........",
".#.aaa..........",
".###..a......a..",
".#aa..a.b...aa..",
".#a....abb.aa...",
".#a....ab#ba....",
".a......b##b....",
"bbbbbbbbb###b...",
"#############b..",
"bbbbbbbbb###bc..",
".cccccccb##bc...",
"........b#bc....",
"........bbc.....",
"........bc......",
"........c.......",
"................"};
