/* XPM */
static char *info_xpm[] = {
/* width height num_colors chars_per_pixel */
"    30    64        2            1",
/* colors */
". c #000000",
"# c None",
/* pixels */
"##############################",
"###############....###########",
"###########...........########",
"########...............#######",
"######..................######",
"####.....................#####",
"###......................#####",
"##.......................#####",
"##.......................#####",
"##.......................#####",
"##......................######",
"##.....................#######",
"###..................#########",
"####...............###########",
"######.........###############",
"##############################",
"##############################",
"##############################",
"##############################",
"#####################...######",
"###############..........#####",
"###########..............#####",
"#######..................#####",
"#####....................#####",
"###......................#####",
"##.......................#####",
"#........................#####",
"#........................#####",
"#........................#####",
"##.......................#####",
"###......................#####",
"####.....................#####",
"#####....................#####",
"######...................#####",
"######...................#####",
"######...................#####",
"######...................#####",
"######...................#####",
"######...................#####",
"######...................#####",
"######...................#####",
"######...................#####",
"######...................#####",
"######...................#####",
"######...................#####",
"######...................#####",
"######...................#####",
"######...................#####",
"######...................#####",
"######....................####",
"#####.....................####",
"#####.....................####",
"####.......................###",
"###.........................##",
"##...........................#",
"#.............................",
"#.............................",
"#.............................",
"#............................#",
"##..........................##",
"####.......................###",
"########...............#######",
"##############################",
"##############################"
};
