/* XPM */
/*

  G N O K I I

  A Linux/Unix toolset and driver for Nokia mobile phones.

  Copyright (C) 1999 Pavel Janík ml. & Hugh Blemings.

  Released under the terms of the GNU GPL, see file COPYING for more details.

  This is the icon for Open.

  Last modification: Wed Jun 14 18:04:00 CEST 2000
  Modified by Marcel Köppen <jojo@jojosoft.de>

*/

static char*NewBD_xpm[]={
"20 18 9 1",
"d c #ffa858",
"e c #c05800",
"# c #000000",
"g c #ff8000",
"b c #ffff00",
"f c #ffdca8",
"c c #0000ff",
". c None",
"a c #ffffff",
"....................",
"...##########.......",
"...#aaaaaaaa##......",
"...#aaaaaaaa#a#.....",
"...#aaaaaaaa####....",
"...#aaaaabaaaaa#....",
"...#aaabacabaaa#....",
"...#aaacacacaaa#....",
"...#aaacccacaaa#....",
"...#aadcdcdceaa#....",
"...#adfcfcfcfea#....",
"...#aeeeeeeeeea#....",
"...#adggdddggea#....",
"...#adggdddggea#....",
"...#aaeeeeeeeaa#....",
"...#aaaaaaaaaaa#....",
"...#############....",
"...................."};
