/* XPM */
/*

  G N O K I I

  A Linux/Unix toolset and driver for Nokia mobile phones.

  Copyright (C) 1999 Pavel Janík ml. & Hugh Blemings.

  Released under the terms of the GNU GPL, see file COPYING for more details.

  This is the icon for Open.

  Last modification: Wed Jun 14 18:04:00 CEST 2000
  Modified by Marcel Köppen <jojo@jojosoft.de>

*/

static char*NewRem_xpm[]={
"20 18 5 1",
"c c #c3c3c3",
"# c #000000",
"b c #ffff00",
". c None",
"a c #ffffff",
"....................",
"...##########.......",
"...#aaaaaaaa##......",
"...#aaaaaaaa#a#.....",
"...#aaaaaaaa####....",
"...#aaaaaaaaaaa#....",
"...#aaaa###aaaa#....",
"...#aaa#bbb#aaa#....",
"...#aa#bbbbb#aa#....",
"...#aa#bbbbb#aa#....",
"...#aa#bbbbb#aa#....",
"...#aaa#bbb#aaa#....",
"...#aaa#ccc#aaa#....",
"...#aaaa#c#aaaa#....",
"...#aaaa###aaaa#....",
"...#aaaaaaaaaaa#....",
"...#############....",
"...................."};
