/* XPM */
static char * Operator_logo_xpm[] = {
"20 19 5 1",
" 	c None",
".	c #000000",
"+	c #808080",
"@	c #00FF00",
"#	c #008000",
"                    ",
"                    ",
"      .             ",
"      .             ",
"   ....             ",
"  .++++.            ",
"  ......  .......   ",
"  .@##.. .       .  ",
"  . ##..   .....    ",
"  ......  .     .   ",
"  ......            ",
"  ......   .....    ",
"  ......   . . .    ",
"  ......    ...     ",
"  ......     .      ",
"  ......     .      ",
"   ....      .      ",
"                    ",
"                    "};
