/* XPM */
/*

  G N O K I I

  A Linux/Unix toolset and driver for Nokia mobile phones.

  Copyright (C) 1999 Jan Derfinak <ja@mail.upjs.sk>

  Released under the terms of the GNU GPL, see file COPYING for more details.

*/

static char *quest_xpm[] = {
/* columns rows colors chars-per-pixel */
"44 66 2 1",
"  c Gray0",
". c None",
/* pixels */
"...................          ...............",
"..............                   ...........",
"...........                         ........",
".......                              .......",
"....                                   .....",
"...                .......              ....",
"....            .............            ...",
"....          ................            ..",
"....         ..................           ..",
"....        ....................           .",
".....      .....................           .",
".....     ......................            ",
".....     .......................           ",
".....    ........................           ",
".....    ........................           ",
".....    .......................            ",
"......  ........................            ",
"......  ........................            ",
"......  .......................            .",
"......  .......................            .",
"......  ......................            ..",
"....... .....................             ..",
"....... ....................             ...",
"...........................             ....",
"..........................             .....",
".........................             ......",
"........................            ........",
"......................             .........",
".....................            ...........",
"....................           .............",
"...................          ...............",
"..................          ................",
".................         ..................",
"................         ...................",
"...............         ....................",
"..............         .....................",
"..............        ......................",
".............         ......................",
".............         ......................",
".............          .....................",
".............           ....................",
".............             ..................",
"..............             .................",
"..............       .......................",
"...............   ..........................",
"............... ............................",
"............................................",
"............................................",
"..................    ......................",
".................      .....................",
"...............         ....................",
"...............          ...................",
"..............           ...................",
"..............            ..................",
"..............            ..................",
"..............            ..................",
"..............            ..................",
"..............           ...................",
"...............          ...................",
"...............         ....................",
"................       .....................",
"..................    ......................",
"............................................",
"............................................",
"............................................",
"............................................",
};
