/* XPM */
/*

  G N O K I I

  A Linux/Unix toolset and driver for Nokia mobile phones.

  Copyright (C) 1999 Jan Derfinak <ja@mail.upjs.sk>

  Released under the terms of the GNU GPL, see file COPYING for more details.

*/

static char * Read_xpm[] = {
"13 19 7 1",
" 	c None",
".	c #000000000000",
"X	c #861782078617",
"o	c #61859A694924",
"O	c #000082070000",
"+	c #C71BC30BC71B",
"@	c #FFFFFBEEFFFF",
"             ",
"          .  ",
"          .  ",
"       ....  ",
"      .XXXX. ",
"      ...... ",
"      .oOO.. ",
"      .+OO.. ",
"      ...... ",
"      .X.... ",
" .   .@..... ",
" .. .@@+.... ",
" .@.@@+..... ",
" .@@@+.X.... ",
" .@@+..X.... ",
" .++++.....  ",
" .......     ",
"             ",
"             "};
