/* XPM */
static char*Reply_xpm[]={
"16 16 5 1",
"b c #ffa858",
"c c #c3c3c3",
"# c #000080",
"a c #000000",
". c None",
".####.....aaaa..",
".#..#.....a##ab.",
".#..#.....a##ab.",
".###c.....a##ab.",
".#c#c.....a##ab.",
".#.c#.....a##ab.",
".#..#c....a##ab.",
"....a.....a##ab.",
"...aa.....a##ab.",
"..a#aaaaaaa##ab.",
".a###########ab.",
"a############ab.",
".a###########ab.",
"..a#aaaaaaaaaab.",
"...aabbbbbbbbbb.",
"....a....ccc...."};
