/* XPM */
/*

  G N O K I I

  A Linux/Unix toolset and driver for Nokia mobile phones.

  Copyright (C) 1999 Pavel Janík ml. & Hugh Blemings.

  Released under the terms of the GNU GPL, see file COPYING for more details.

  This is the logo of the GUI utility.

  Copyright (C) 1999 Petr Vostøel <Petr.Vostrel@inet.cz>
	
  Last modification: Sat Jun 26 07:38:27 CEST 1999
  Modified by Pavel Janík ml. <Pavel.Janik@linux.cz>

*/

static char *XPM_sms[] = {

"26 7 126 2",

".. c None",
".# c #161616",
".a c #cf9a98",
".b c #d9e1ed",
".c c #b10707",
".d c #ededed",
".e c #bababa",
".f c #ababab",
".g c #385886",
".h c #c2c2c2",
".i c #9b9b9b",
".j c #af5f5d",
".k c #353535",
".l c #dedede",
".m c #8b8b8b",
".n c #757575",
".o c #444444",
".p c #a4a4a4",
".q c #393939",
".r c #e6e6e6",
".s c #f3f3f3",
".t c #6f0302",
".u c #e6ebf3",
".v c #b2b2b2",
".w c #545454",
".x c #ffffff",
".y c #848383",
".z c #233755",
".A c #656565",
".B c #7b7b7b",
".C c #949494",
".D c #2c2c2d",
".E c #6b6b6b",
".F c #0f1a29",
".G c #4c4c4c",
".H c #cecece",
".I c #d6d6d6",
".J c #1f2020",
".K c #b2c2d9",
".L c #5c5c5c",
".M c #d6deeb",
".N c #2b4468",
".O c #162336",
".P c #0e0e0e",
".Q c #f9f9f9",
".R c #000000",
".S c #e8edf4",
".T c #3d6194",
".U c #edf1f6",
".V c #c9c9c9",
".W c #41669c",
".X c #e8cecd",
".Y c #cad5e5",
".Z c #bccade",
".0 c #4369a1",
".1 c #9ca4ae",
".2 c #b5c5db",
".3 c #c5d2e3",
".4 c #324e78",
".5 c #3d3d3d",
".6 c #9299a3",
".7 c #d3dce9",
".8 c #1b2b42",
".9 c #b4bcc8",
"#. c #34527e",
"## c #cdd8e7",
"#a c #2d0201",
"#b c #012343",
"#c c #f4eaea",
"#d c #08121e",
"#e c #8a919d",
"#f c #c2cfe1",
"#g c #bfbfbf",
"#h c #080d14",
"#i c #fcfcfc",
"#j c #c4cedb",
"#k c #bf7c7b",
"#l c #cfd9e8",
"#m c #757b83",
"#n c #b6c6db",
"#o c #f9f2f2",
"#p c #2e4970",
"#q c #d2adac",
"#r c #d7e0eb",
"#s c #7d838b",
"#t c #1f314b",
"#u c #61666c",
"#v c #686d74",
"#w c #08090b",
"#x c #484e56",
"#y c #6f7071",
"#z c #242525",
"#A c #bfcde0",
"#B c #c7c5c5",
"#C c #040506",
"#D c #303031",
"#E c #37393d",
"#F c #273e5e",
"#G c #446ba4",
"#H c #282929",
"#I c #eef2f7",
"#J c #344f69",
"#K c #eef1f7",
"#L c #d1dbe9",
"#M c #565758",
"#N c #a5adb8",
"#O c #606161",
"#P c #786463",
"#Q c #b4c4da",
"#R c #404040",
"#S c #575b61",
"#T c #858b94",
"#U c #dde4ee",
"#V c #ebeff5",
"#W c #4b2726",
"#X c #2b2e34",
"#Y c #414449",
"#Z c #484848",
"#0 c #505050",
"#1 c #725655",
"#2 c #a23c3a",
"#3 c #acb4bf",
"#4 c #bdc6d3",
"#5 c #c0c9d6",
"#6 c #b3c3da",
"#7 c #ffffff",

"...1#S.#.R.R.R.R.R.R.R.R.R#z#x.R.R.R.R#z#x.#.##x#e..",
".1.D.R.e.x.x.x.x.w.x.x.n#z.J.d.x.n.e.x.x.x.x.w.R#z#e",
"#M.R.R.x.m.R.#.n.o.x.x.l#X.A.x.x.n.x.m.R.#.n.o.R.R#x",
".#.R.R.l.x.e.e.f.#.x.f.x.o.f.f.x.n.l.x.e.e.f.#.R.R.#",
".#.R.R#z.o.n.m.x.n.x.n.l.h.x.A.x.n#z.o.n.m.x.n.R.R.#",
".#.R.R.x.f.o.w.x.n.x.n.n.x.d.R.x.n.x.f.o.w.x.n.R.R#M",
".R.R.R.m.x.x.x.d.k.x.n#z.x.i.R.x.n.m.x.x.x.d.k.R.R.R"
};
