/* XPM */
static char * Startup_logo_xpm[] = {
"20 19 10 1",
" 	c None",
".	c #000000",
"+	c #808080",
"@	c #00FF00",
"#	c #008000",
"$	c #009D00",
"%	c #1C5CFF",
"&	c #FFFF1E",
"*	c #913615",
"=	c #0B256B",
"                    ",
"                    ",
"      .             ",
"      .             ",
"   ....             ",
"  .++++. ...        ",
"  ......    .       ",
"  .@##..   ...      ",
"  . ##..    .       ",
"  ......            ",
"  ...... .......... ",
"  ...... .$$$%%%&&. ",
"  ...... .$*$%%%%&. ",
"  ...... .%*%%%%%%. ",
"  ...... .****====. ",
"  ...... .***=====. ",
"   ....  .......... ",
"                    ",
"                    "};
