/* XPM */
static char * Tool_brush_xpm[] = {
"20 19 4 1",
" 	c None",
".	c #000000",
"+	c #949194",
"@	c #FFFFFF",
"                    ",
"                    ",
"                    ",
"           ....     ",
"           .   .    ",
"          .    .    ",
"          ..  .+    ",
"         .@@...+    ",
"         .@  .++    ",
"        .@@  .+     ",
"        .@  .++     ",
"       .@@  .+      ",
"       .@  .++      ",
"       ..  .+       ",
"       ....++       ",
"       ...++        ",
"       ..++         ",
"       .++          ",
"                    "};
