/* XPM */
static char * Tool_filled_rectangle_xpm[] = {
"20 19 2 1",
" 	c None",
".	c #000000",
"                    ",
"                    ",
"                    ",
"   ..............   ",
"   ..............   ",
"   ..............   ",
"   ..............   ",
"   ..............   ",
"   ..............   ",
"   ..............   ",
"   ..............   ",
"   ..............   ",
"   ..............   ",
"   ..............   ",
"   ..............   ",
"                    ",
"                    ",
"                    ",
"                    "};
