<?xml version="1.0"?>
<!-- Converted with SVG Converter - Version 0.9.5 (Compiled Mon May 30 09:18:17 2011) - Copyright (C) 2011 Nokia -->
<svg xmlns="http://www.w3.org/2000/svg" width="200" version="1.0" height="200" baseProfile="tiny" xmlns:xlink="http://www.w3.org/1999/xlink" id="svg1" viewBox="0 0 200 200">
 <metadata id="metadata1397"/>
 <defs id="defs2">
  <linearGradient id="linearGradient2325">
   <stop offset="0" style="stop-color:#005c00;stop-opacity:1;" id="stop2327"/>
   <stop offset="0" style="stop-color:#005c00;stop-opacity:0.49803922;" id="stop2333"/>
   <stop offset="1" style="stop-color:#005c00;stop-opacity:0;" id="stop2329"/>
  </linearGradient>
 </defs>
 <path style="opacity:1;fill:#fbb400;fill-opacity:1;stroke:#000000;stroke-width:5.41374588;stroke-linejoin:round;stroke-miterlimit:4;stroke-dasharray:none;stroke-opacity:1" id="path2318" d="M 22.163956 92.638397  C 22.1743 142.6803 -17.0251 183.2529 -65.3837 183.2529 C -113.7422 183.2529 -152.9416 142.6803 -152.9313 92.6384 C -152.9416 42.5965 -113.7422 2.0239 -65.3837 2.0239 C -17.0251 2.0239 22.1743 42.5965 22.1640 92.6384 z" transform="matrix(1.1054318,0,0,1.0678068,172.41534,1.0855325)"/>
 <g id="g2168">
  <path style="fill:#ffffff;stroke:#000000;stroke-width:6;stroke-linejoin:round;stroke-miterlimit:4;stroke-dasharray:none;stroke-opacity:1" id="path11" d="M 78.294473,23.015415 C 78.294473,23.015415 41.868367,23.44065 42.34129,52.782044 C 42.814496,82.123437 49.437399,108.06295 60.318024,122.52096 C 71.198506,136.97974 99.109309,174.82585 130.80562,170.9986 C 130.80562,170.9986 146.41632,168.02156 158.24223,161.21728 L 119.92428,134.42781 C 119.92428,134.42781 108.57074,140.80698 101.47477,132.30227 C 94.378805,123.79755 72.144635,84.249615 72.144635,84.249615 C 72.144635,84.249615 65.994797,71.492416 79.713666,65.964479 L 78.294473,23.015415 z "/>
  <path style="fill:#ffffff;stroke:#000000;stroke-width:6.25506735;stroke-linejoin:round;stroke-miterlimit:4;stroke-dasharray:none;stroke-opacity:1" id="path12" d="M 78.543175,23.067581 C 78.543175,23.067581 81.644482,22.237339 87.339486,24.802018 C 93.034491,27.366572 93.039436,29.480244 93.039436,29.480244 L 93.624855,58.65175 C 93.624855,58.65175 92.077245,60.335012 90.012448,62.01559 C 87.94765,63.696422 81.22998,66.199439 80.191648,64.503509 C 79.15347,62.807329 78.543175,23.067581 78.543175,23.067581 z "/>
  <path style="fill:#ffffff;stroke:#000000;stroke-width:6.22810364;stroke-linejoin:round;stroke-miterlimit:4;stroke-dasharray:none;stroke-opacity:1" id="path13" d="M 121.06622,134.36774 L 133.00378,131.29506 C 133.00378,131.29506 135.06261,130.91113 138.35596,132.83085 C 141.64809,134.7517 158.93794,147.4252 158.93794,147.4252 C 158.93794,147.4252 161.81855,149.73 160.99556,152.41873 C 160.1725,155.10631 158.11369,160.86773 158.11369,160.86773 L 121.06622,134.36774 z "/>
 </g>
</svg>
