/* XPM */
static char * gnokii_xpm[] = {
"49 44 256 2",
"  	c None",
". 	c #020203",
"+ 	c #4C5A4C",
"@ 	c #C2CAD2",
"# 	c #8EA68C",
"$ 	c #627661",
"% 	c #0D1210",
"& 	c #1A2622",
"* 	c #6E8A6E",
"= 	c #EAEAEB",
"- 	c #223A36",
"; 	c #A3A68E",
"> 	c #9A9A8A",
", 	c #A2B2A4",
"' 	c #DADEDC",
") 	c #524E4E",
"! 	c #869E85",
"~ 	c #8E7666",
"{ 	c #506250",
"] 	c #324A46",
"^ 	c #8F9080",
"/ 	c #6A626A",
"( 	c #ADBAAE",
"_ 	c #7B7A7B",
": 	c #7E967E",
"< 	c #667E66",
"[ 	c #CED2D0",
"} 	c #566653",
"| 	c #444244",
"1 	c #293E38",
"2 	c #878A77",
"3 	c #566A56",
"4 	c #424A44",
"5 	c #121A16",
"6 	c #B8C1BA",
"7 	c #122E2A",
"8 	c #0E0E10",
"9 	c #26628E",
"0 	c #D6DADA",
"a 	c #5A82A6",
"b 	c #768E76",
"c 	c #373E3A",
"d 	c #566E86",
"e 	c #757773",
"f 	c #E2E2E2",
"g 	c #545C59",
"h 	c #6A826A",
"i 	c #EEEEEF",
"j 	c #5E725E",
"k 	c #9EAE9C",
"l 	c #252D2B",
"m 	c #9AB2C2",
"n 	c #A2A692",
"o 	c #8F9A8F",
"p 	c #425650",
"q 	c #7E856D",
"r 	c #A6B4A6",
"s 	c #7C8A98",
"t 	c #BEC6BE",
"u 	c #AEAEAE",
"v 	c #1A322E",
"w 	c #666C68",
"x 	c #36423C",
"y 	c #6D6E6E",
"z 	c #494A49",
"A 	c #869EB2",
"B 	c #373A38",
"C 	c #828676",
"D 	c #262223",
"E 	c #4E6682",
"F 	c #828A72",
"G 	c #626A68",
"H 	c #0E0909",
"I 	c #151E1A",
"J 	c #9AA28A",
"K 	c #6E786E",
"L 	c #666666",
"M 	c #8E8E8E",
"N 	c #929E8A",
"O 	c #92A6B6",
"P 	c #828F7D",
"Q 	c #29342F",
"R 	c #DAD6DA",
"S 	c #464F46",
"T 	c #8E968A",
"U 	c #AEB5B0",
"V 	c #827A72",
"W 	c #768574",
"X 	c #B2BABA",
"Y 	c #7A8E77",
"Z 	c #3E423E",
"` 	c #D2D6D5",
" .	c #5A655E",
"..	c #82967F",
"+.	c #F1F2F2",
"@.	c #6E866E",
"#.	c #9AAA99",
"$.	c #BEBEBF",
"%.	c #466686",
"&.	c #7A927B",
"*.	c #7C7F7B",
"=.	c #767E7A",
"-.	c #C9CECC",
";.	c #1E2626",
">.	c #787068",
",.	c #9EA28E",
"'.	c #0A0507",
").	c #687671",
"!.	c #8AA288",
"~.	c #829A81",
"{.	c #E2E6E3",
"].	c #364644",
"^.	c #667A65",
"/.	c #5A6E5A",
"(.	c #263A36",
"_.	c #171615",
":.	c #898A8A",
"<.	c #5B5A5A",
"[.	c #555654",
"}.	c #A6A6A6",
"|.	c #1C1E1C",
"1.	c #7C867E",
"2.	c #B2B2B2",
"3.	c #BEC2C0",
"4.	c #362E32",
"5.	c #2E3631",
"6.	c #889692",
"7.	c #32463E",
"8.	c #364A46",
"9.	c #9EA292",
"0.	c #060708",
"a.	c #313E3C",
"b.	c #667267",
"c.	c #96A795",
"d.	c #4D4E4C",
"e.	c #889284",
"f.	c #9A9A99",
"g.	c #828671",
"h.	c #3E524E",
"i.	c #727E76",
"j.	c #2E3A33",
"k.	c #B6B6B6",
"l.	c #A9AAAA",
"m.	c #5A6A6A",
"n.	c #646C70",
"o.	c #3A4A45",
"p.	c #D2D2D2",
"q.	c #8C827E",
"r.	c #929292",
"s.	c #F5F6F6",
"t.	c #768A86",
"u.	c #7E8E84",
"v.	c #6E826C",
"w.	c #BABABA",
"x.	c #9E9E8E",
"y.	c #A2B2BE",
"z.	c #616262",
"A.	c #728A72",
"B.	c #2E2D2D",
"C.	c #526262",
"D.	c #9AA296",
"E.	c #8A9E87",
"F.	c #828A84",
"G.	c #5B5656",
"H.	c #4C524E",
"I.	c #060204",
"J.	c #7E927B",
"K.	c #3A463E",
"L.	c #4D564D",
"M.	c #4B5A57",
"N.	c #828282",
"O.	c #869A83",
"P.	c #323A34",
"Q.	c #728278",
"R.	c #6A6662",
"S.	c #454645",
"T.	c #32423E",
"U.	c #969697",
"V.	c #625C56",
"W.	c #526652",
"X.	c #6A869A",
"Y.	c #6A726D",
"Z.	c #5E6A5E",
"`.	c #5A5054",
" +	c #CECECE",
".+	c #8A8E7E",
"++	c #768A73",
"@+	c #92AA90",
"#+	c #6A7E69",
"$+	c #C2C6C4",
"%+	c #6A7A68",
"&+	c #726A6A",
"*+	c #272627",
"=+	c #707270",
"-+	c #728670",
";+	c #1A221E",
">+	c #858685",
",+	c #9EA2A4",
"'+	c #D6D6D6",
")+	c #DEDEDE",
"!+	c #191A19",
"~+	c #8EA28A",
"{+	c #9E9E9E",
"]+	c #4E4E56",
"^+	c #DEDADE",
"/+	c #5E5E5E",
"(+	c #56665E",
"_+	c #667272",
":+	c #859686",
"<+	c #CACACA",
"[+	c #121616",
"}+	c #3E3E3E",
"|+	c #AAB2BE",
"1+	c #6E7E6F",
"2+	c #92A690",
"3+	c #4E4A4B",
"4+	c #323631",
"5+	c #5A6A62",
"6+	c #E6E6E6",
"7+	c #929A98",
"8+	c #7C8E7E",
"9+	c #C2C2C2",
"0+	c #3E4E4E",
"a+	c #424E44",
"b+	c #888E8B",
"c+	c #8E9296",
"d+	c #9EAEAA",
"e+	c #3A423D",
"f+	c #3E3A3E",
"g+	c #5F6661",
"h+	c #3A4643",
"i+	c #16221F",
"j+	c #627266",
"k+	c #5A6A5B",
"l+	c #E6E2E6",
"m+	c #969A8A",
"n+	c #1E221E",
"o+	c #C6C6C7",
"p+	c #0A0A0A",
"q+	c #525252",
"r+	c #3E4640",
"s+	c #4A4647",
"t+	c #121211",
"u+	c #4E5E4E",
"v+	c #4A5E56",
"w+	c #465252",
"x+	c #2C3A3A",
"y+	c #6B6A6A",
"z+	c #323A3A",
"A+	c #3E4A42",
"B+	c #A2A2A2",
"C+	c #93A196",
"D+	c #7A7276",
"E+	c #626E65",
"F+	c #DADADA",
"G+	c #BEBABE",
"      J V d.q.) x z G.q+S.e+L.Y.1.o l.k.$+ +p.'+p.p.<+$.u {+b+=.G a+x+a.a.a.K.d.h+7 T.- H         ",
"    v+,.>.G.~ 4 x 4 e 7+3.f = 6+l+f )+)+)+' F+R F+R '+'+p.'+^+^+' )+` 2.e._+A+S | v x+(.H         ",
"    M.; &+S V.K 2.= i i i = = 6+l+0 R '+p.9+9+<+'+9+o+'+9+'+0 ' ' ^+' F+)+' F+3.b+7.x+(.H         ",
"    h.; R.e.i F+F+= = = 6+6+6+f {.R.c >+) y q+3+/+:.<.}.B.B+'+F+^+F+^+)+F+)+^+= 6+9+].1 8         ",
"    p ,.z.X i '+F+= 6+= 6+f {.)+)+y f.;.q+/+z q+_ y+<.H./+z  +F+F+F+)+)+^+)+F+6+= <+0+a.8         ",
"    v+; <.$+= '+F+6+6+6+6+6+f f )+R ^+p.p.<+<+ +'+-. + +p. +'+'+F+F+F+F+' F+F+f i  +h.T.8         ",
"    u+,.G.[ 6+p.'+6+{.{.f l+)+^+'+[ <+o+9+$.w.X G+k.G+G+9+9+$+-.` '+F+F+)+F+F+f i p.M.7.%         ",
"    C.,.+ F+f  +w.P 1.K b. .u+v++ + u+{ { 3 j j+$ ^.^.< %+^.1+1+Q.%+1+W u.e.T [ +.p.C.T.8         ",
"    (+x.H.)+' <+E+{ W.W.3 3 3 /./.j j+$ $ $ ^.< #+#+#+h v.@.-+-+A.++Y b &.8+J.( s.p. .].t+        ",
"    } x.p {.R $. .{ W.W.W.} 3 3 k+/.j $ $ $ ^.$ < #+#+#+h v.@.A.++A.++Y Y &.J.U +.F+G ].[+D       ",
"     .> S {.p.$.{ { { W.3 3 /././.j /.j $ $ ^.^.< #+#+#+h -+-+-+++b ++b J.&.J.r s.0 E+7.[+q+      ",
"    3 > h.=  +2.} { W.} 3 3 3 /././.$ $ $ $ $ ^.^.#+#+v.v.-+A.Y ++J.J...J.J.: , s.F+Y.h+[+3+      ",
"    k+> A+6+<+u W.W.W.W.3 /././.j j j $ ^.^.%+%+#+h h -+v.-+-+++E+:+-+F.: : ..k +.F+Y.].5 s+      ",
"    E+^ 4 {.$+}.W.3 3 3 k+/./.j j j $ $ $ ^.< #+#+#+H.!++ ++++b j+l e.;.1+....#.s.^+=+].!+|       ",
"    E+^ a+{.9+{+{ 3 3 } P.A+r+S g+r+r+P.+ v.u+c r+^.a+I.) Z.S Q.j+_.F n+K ....#.s.^+=+x !+|       ",
"    j+^ K.l+6 {+W.3 3 P.. D . 8 d.. |.I.'.g+. *+'.p+) . z _.I.e.y I 1.Q *...O.c.s.' y 7.!+|       ",
"    j ^ o.f $.f.W.k+k+B . >.8 8 3+. H._.0.q+I.w !+. `.. I . 4+N C.|.).l *...~.C++.F+).].I |       ",
"    b..+r+F+6 U.W././.B . R.8 8 z . [.[+0.q+. R._.I.[.. . . _ : T.l /+% :+! O.2++.0 y 7.i+S.      ",
"    Q.^ r+p.$.c+W././.B . n.8 8 3+. G.t+'.3+I.y+_.. G.I.. . g+:+n+}+]+8 D.! O.c.i '+n.].i+S.      ",
"    t..+K.<+3.M W././.4+. _+8 8 3+. [._.'.3+I.y+!+I.<.I.. . *+E.8 S.c _.c.! ! C+s.` m.8.|.|       ",
"    ++2 r+3.$+:.3 j j B . e 8 8 z . [._.'.]+I.y+_.. G.. e+0.. 1.% }+a.t+D.!.! C+s.[ C.8.& s+      ",
"    J.2 4 U <+b+W./.j B I.*+0.8 3+. [._.0./ . D 0.0.V.. H.4+. B I l H.'.o E.!.c.+.<+M.].i+z       ",
"    A.F r+#.-.:./.j $ K 4 s+. 8 Q.w F.Y.K T E+s+q+>+1.w F.Q.&+D+*._+O. .#.~+!.#.s.<+h.].i+3+      ",
"    &.>+e+7+p.:./.j j  .p+p+I.B P v.v.v.Q.-+++++++Y Y Y J.....~.~.! O.E.!.!.!.d+s.9+o.].i+d.      ",
"    : C ].s ` >+b.j $ %+%+Y.K P h h v.@.-+-+++Y Y Y J.&.J.......~.! ! !.!.~+~+r +.w.x 8.i+]+      ",
"    8+g.Z i.^+N.^.j j ^.^.%+%+#+v.v.@.-+-+A.++b b &.&.: : : O.! O.! E.E.~+# # U +.2.x+h+& )       ",
"    ..g.Z E+)+N.%+/./.$ ^.< #+#+v.v.-+A.++++++Y Y J.J.......~.! E.!.~+~+~+# @+6 i }.a.8.& q+      ",
"    ..g.e++ )+>+%+j $ $ ^.#+#+v.v.-+@.-+++b b Y &.&.J.: ..~.O.E.! E.!.!.# # 2+t = U.a.h+;+q+      ",
"    ..g.T.o.)+:.K j $ ^.^.#+#+v.v.-+-+-+++++b Y Y &.J.: ..~.~.O.! ! !.~+# @+@+ +)+N.T.7.;+[.      ",
"    6.q a.c  +r.y j $ $ < #+h #+v.v.-+A.A.Y ++Y &.J.&.: ~...O.! ! E.E.!.# # @+' ' ).T.o.& G.      ",
"    e.q a.x 2.}.w j $ $ < #+h v.-+@.-+++A.Y b Y &.J.: : ~.~.O.! !.!.~+~+# 2+# {.[ g 7.].& <.      ",
"    ..q P.T.{+$._ i.v.Q.v.v.v.@.@.A.++A.++b &.J.J.: ....O.! ! E.! ~+# 2+c.@+, s.$+h.].h+n+<.      ",
"    o g.P.P.1. +w. +{.= {.' ` -.6 ( #.C+T ..J.J.J...E.~+#.U 6 $+-.-.[ p.p.'++.= X ] ].].n+D       ",
"      q j.P.G R $.p.f f )+F+[ <+ +<+p.'+' )+f {.6+6+6+6+f ' p.[ <+ +<+<+ +'+F+-.u 1 e+K.n+        ",
"      q 5.4+A+R w.X G+$.3.o+<+-.p.p.p. +p. +p.'+R ^+)+f )+F+'+`  + +-.<+o+<+o+o+M j.h+].n+        ",
"      g.j.j.P.G+k.u 2.u u u u l.u l.2.k.$.o+o+ + +<+<+9+$.$.9+9+o+o+o+o+o+9+$.k.g+x K.K.;+        ",
"      F j.P.a.B.| <.z._ {+}.l.}.l.}.}.}.}.l.l.x.{+l.2.w.$.$.$.$.$.$.$.l._ q+S.Q [+x e+e+n+        ",
"      q 5.5.4+l -.)+<+B+e /+>+B+B+B+B+B+}.f.<.e e q+U.2.k.w.$.$.G+r.q+/ r.G+o+{+;.x x o.;+        ",
"      q 5.5.5.P.l.[ |+p.R p.M <.M {+B+{+{+<. + + +9+[.x.k.k.w.}.[.N.$+<+o+u r.e B.x x K.;+        ",
"      q j.j.Q B w '+O a @ F+'+<+R.U.{+B+z.w.9+2.l.G+2.<.u w.k.L o+ + +$+s d ,+| T.].e+e+;+        ",
"      g.5.P.5.5.B $+p.m 9 A 9+3.{+:.f.U._ 2.B+4.;.U.u _ M 2.u B+3.3.k.%.E ,+:.l e+].h+r+;+        ",
"      q 4+Q Q 4+a._ ` -.d+X.l.{+_ f.{+L u }.U.C M :.B+2.z.2.w.r.B+l.l.s }.{+]+a.].h+h+K.|.        ",
"      F P.5.5.4+5.c G+o+w.B+b+y {+f.f.y $.2.u l.u 2.u k.y+}.k.G+>+:.f.{+{+>+Q Z h+h+h+h+;+        ",
"      F B Q 4+4+4+j.z.9+2.>+*.{+r.r.M :.$.o+<+ + +<+o+9+r.N.u k.w.c+*.f.U.| x e+e+r+r+A+I         "};
